<svg width="231" height="96" viewBox="0 0 231 96" fill="none" xmlns="http://www.w3.org/2000/svg">
<path d="M130.456 70.448C127.469 70.448 124.781 69.936 122.392 68.912C120.003 67.8453 118.125 66.352 116.76 64.432C115.395 62.512 114.712 60.272 114.712 57.712H122.52C122.691 59.632 123.437 61.2107 124.76 62.448C126.125 63.6853 128.024 64.304 130.456 64.304C132.973 64.304 134.936 63.7067 136.344 62.512C137.752 61.2747 138.456 59.696 138.456 57.776C138.456 56.2827 138.008 55.0667 137.112 54.128C136.259 53.1893 135.171 52.464 133.848 51.952C132.568 51.44 130.776 50.8853 128.472 50.288C125.571 49.52 123.203 48.752 121.368 47.984C119.576 47.1733 118.04 45.936 116.76 44.272C115.48 42.608 114.84 40.3893 114.84 37.616C114.84 35.056 115.48 32.816 116.76 30.896C118.04 28.976 119.832 27.504 122.136 26.48C124.44 25.456 127.107 24.944 130.136 24.944C134.445 24.944 137.965 26.032 140.696 28.208C143.469 30.3413 145.005 33.2853 145.304 37.04H137.24C137.112 35.4187 136.344 34.032 134.936 32.88C133.528 31.728 131.672 31.152 129.368 31.152C127.277 31.152 125.571 31.6853 124.248 32.752C122.925 33.8187 122.264 35.3547 122.264 37.36C122.264 38.7253 122.669 39.856 123.48 40.752C124.333 41.6053 125.4 42.288 126.68 42.8C127.96 43.312 129.709 43.8667 131.928 44.464C134.872 45.2747 137.261 46.0853 139.096 46.896C140.973 47.7067 142.552 48.9653 143.832 50.672C145.155 52.336 145.816 54.576 145.816 57.392C145.816 59.6533 145.197 61.7867 143.96 63.792C142.765 65.7973 140.995 67.4187 138.648 68.656C136.344 69.8507 133.613 70.448 130.456 70.448ZM183.161 25.52V31.472H171.321V70H164.025V31.472H152.121V25.52H183.161ZM228.886 25.52L212.182 70H203.734L186.966 25.52H194.774L207.958 62.512L221.206 25.52H228.886Z" fill="#504B8E"/>
<path d="M52.1063 84C72.2647 84 88.6063 67.6584 88.6063 47.5C88.6063 27.3416 72.2647 11 52.1063 11C31.9479 11 15.6063 27.3416 15.6063 47.5C15.6063 67.6584 31.9479 84 52.1063 84Z" fill="#D8E3FF"/>
<path d="M2.04277 23.0424C4.23858 23.2315 6.48455 23.7787 8.53361 25.1727C9.01716 25.5759 9.55876 25.8861 10.0027 26.378C10.4468 26.859 10.9361 27.3319 11.3127 27.8621C11.6669 28.3288 12.011 28.7932 12.3449 29.277C17.8183 29.6507 23.2799 30.388 28.6896 31.6321C32.4571 32.479 36.1804 33.6346 39.8657 35.0011C43.1046 36.2982 46.3249 37.8564 49.3298 40.0195C40.2093 30.0389 30.3948 26.4664 25.738 24.8557C15.6054 21.3486 6.55053 21.7711 0 23.0143C0.67473 22.9887 1.36057 23.0047 2.04277 23.0424Z" fill="#504B8E"/>
<path d="M28.24 34.8306C24.5583 33.9305 20.8294 33.3063 17.0944 32.7692C16.1898 32.6348 15.2853 32.5004 14.3852 32.4009C15.4695 34.1542 16.4873 36.0089 17.4176 37.9192C17.6059 38.3052 17.7924 38.7042 17.9806 39.1011C22.8615 39.4622 27.7382 40.1348 32.5809 41.2078L35.3504 41.9256L36.7325 42.2953L38.1018 42.7389L40.8387 43.637C41.7487 43.985 42.6468 44.3502 43.5513 44.7286C47.1379 46.2353 50.6741 48.1268 53.9166 50.7376C56.5734 52.8502 59.0849 55.4531 61.0422 58.6649C59.9075 55.9633 58.5469 53.1866 56.9224 50.4151C54.7983 47.4341 52.269 45.027 49.5344 43.116C46.2866 40.882 42.7856 39.224 39.1906 37.9699C35.5954 36.7289 31.9417 35.6135 28.24 34.8306Z" fill="#504B8E"/>
<path d="M52.9332 52.9417C49.742 50.7237 46.3442 48.9604 42.8231 47.6725L40.1961 46.6714L37.5234 45.8352L36.182 45.4224L34.8279 45.0836L32.128 44.406C28.5003 43.5894 24.8489 42.9097 21.1761 42.4562C20.5715 42.3629 19.965 42.2783 19.3567 42.2068C19.784 43.1843 20.2098 44.0266 20.7418 44.7899C22.0466 46.6508 23.7081 48.0657 25.5787 48.9627C26.5105 49.4265 27.4776 49.7448 28.4985 50.0354L31.6546 50.9197L44.2616 54.6285L50.5399 56.5534C52.7305 57.3634 54.7876 58.6595 56.6294 60.3143C60.191 63.5155 62.9647 67.8168 65.2183 72.4247C64.3886 68.5422 63.0683 64.8882 61.24 61.7675C59.0697 58.0169 56.092 55.2049 52.9332 52.9417Z" fill="#504B8E"/>
</svg>
